<svg width="42" height="42" viewBox="0 0 42 42" fill="none" xmlns="http://www.w3.org/2000/svg">
<path d="M38.868 21.1314C38.868 19.6401 38.7445 18.5519 38.4773 17.4233H21.1006V24.1543H31.3003C31.0947 25.8271 29.9843 28.3462 27.5165 30.0389L27.4819 30.2643L32.9761 34.4354L33.3568 34.4726C36.8526 31.3086 38.868 26.6533 38.868 21.1314Z" fill="#4285F4"/>
<path d="M21.0995 38.8664C26.0964 38.8664 30.2915 37.2541 33.3556 34.4731L27.5154 30.0393C25.9526 31.1074 23.855 31.8531 21.0995 31.8531C16.2052 31.8531 12.0513 28.6891 10.5706 24.3159L10.3535 24.334L4.64063 28.6669L4.56592 28.8704C7.60937 34.7954 13.8609 38.8664 21.0995 38.8664Z" fill="#34A853"/>
<path d="M10.5718 24.3158C10.1811 23.1873 9.95498 21.978 9.95498 20.7286C9.95498 19.479 10.1811 18.2699 10.5513 17.1414L10.5409 16.901L4.75638 12.4985L4.56712 12.5868C3.31277 15.0454 2.59302 17.8064 2.59302 20.7286C2.59302 23.6507 3.31277 26.4116 4.56712 28.8703L10.5718 24.3158Z" fill="#FBBC05"/>
<path d="M21.0996 9.60445C24.5748 9.60445 26.9191 11.0756 28.2558 12.305L33.4791 7.30707C30.2712 4.38492 26.0966 2.59131 21.0996 2.59131C13.8609 2.59131 7.60938 6.66215 4.56592 12.587L10.5501 17.1416C12.0514 12.7685 16.2053 9.60445 21.0996 9.60445Z" fill="#EB4335"/>
</svg>
